<svg xmlns="http://www.w3.org/2000/svg" xmlns:xlink="http://www.w3.org/1999/xlink" width="362pt" height="781pt" viewBox="0.00 0.00 361.69 781.13">
<g id="graph0" class="graph" transform="scale(1 1) rotate(0) translate(4 777.13)">
<title>RewardCalculation</title>
<polygon fill="white" stroke="none" points="-4,4 -4,-777.13 357.69,-777.13 357.69,4 -4,4"/>
<g id="clust1" class="cluster">
<title>cluster_factors</title>
<polygon fill="none" stroke="#2196f3" stroke-dasharray="5,2" points="24,-344.53 24,-710.13 178,-710.13 178,-344.53 24,-344.53"/>
<text text-anchor="middle" x="101" y="-693.53" font-family="Times,serif" font-size="14.00">核心计算因素</text>
</g>
<g id="clust2" class="cluster">
<title>cluster_integration</title>
<polygon fill="#fff9c4" stroke="black" points="8,-65 8,-309.73 332,-309.73 332,-65 8,-65"/>
<text text-anchor="middle" x="170" y="-293.13" font-family="Times,serif" font-size="14.00">综合奖励计算</text>
</g>
<!-- start -->
<g id="node1" class="node">
<title>start</title>
<ellipse fill="#c8e6c9" stroke="#4caf50" cx="101" cy="-755.13" rx="59.33" ry="18"/>
<text text-anchor="middle" x="101" y="-750.93" font-family="Arial" font-size="14.00">开始计算奖励</text>
</g>
<!-- fitness_node -->
<g id="node3" class="node">
<title>fitness_node</title>
<path fill="none" stroke="black" d="M158.46,-677.33C158.46,-677.33 43.54,-677.33 43.54,-677.33 37.54,-677.33 31.54,-671.33 31.54,-665.33 31.54,-665.33 31.54,-647.73 31.54,-647.73 31.54,-641.73 37.54,-635.73 43.54,-635.73 43.54,-635.73 158.46,-635.73 158.46,-635.73 164.46,-635.73 170.46,-641.73 170.46,-647.73 170.46,-647.73 170.46,-665.33 170.46,-665.33 170.46,-671.33 164.46,-677.33 158.46,-677.33"/>
<text text-anchor="middle" x="101" y="-660.73" font-family="Arial" font-size="14.00">计算适应度改善 </text>
<text text-anchor="middle" x="101" y="-643.93" font-family="Arial" font-size="14.00"> (归一化到 [-1,1] 范围)</text>
</g>
<!-- start&#45;&gt;fitness_node -->
<g id="edge1" class="edge">
<title>start-&gt;fitness_node</title>
<path fill="none" stroke="black" d="M101,-736.86C101,-723.63 101,-705.01 101,-689.13"/>
<polygon fill="black" stroke="black" points="104.5,-689.17 101,-679.17 97.5,-689.17 104.5,-689.17"/>
</g>
<!-- end -->
<g id="node2" class="node">
<title>end</title>
<ellipse fill="#ffcdd2" stroke="#f44336" cx="170" cy="-18" rx="67.38" ry="18"/>
<text text-anchor="middle" x="170" y="-13.8" font-family="Arial" font-size="14.00">返回裁剪后奖励</text>
</g>
<!-- mhc_node -->
<g id="node4" class="node">
<title>mhc_node</title>
<path fill="none" stroke="black" d="M137.45,-582.93C137.45,-582.93 50.55,-582.93 50.55,-582.93 44.55,-582.93 38.55,-576.93 38.55,-570.93 38.55,-570.93 38.55,-553.33 38.55,-553.33 38.55,-547.33 44.55,-541.33 50.55,-541.33 50.55,-541.33 137.45,-541.33 137.45,-541.33 143.45,-541.33 149.45,-547.33 149.45,-553.33 149.45,-553.33 149.45,-570.93 149.45,-570.93 149.45,-576.93 143.45,-582.93 137.45,-582.93"/>
<text text-anchor="middle" x="94" y="-566.33" font-family="Arial" font-size="14.00">计算 MHC 改善 </text>
<text text-anchor="middle" x="94" y="-549.53" font-family="Arial" font-size="14.00"> (条件判断历史值)</text>
</g>
<!-- fitness_node&#45;&gt;mhc_node -->
<g id="edge2" class="edge">
<title>fitness_node-&gt;mhc_node</title>
<path fill="none" stroke="black" d="M99.48,-635.48C98.57,-623.5 97.4,-608.01 96.37,-594.44"/>
<polygon fill="black" stroke="black" points="99.88,-594.36 95.63,-584.65 92.9,-594.89 99.88,-594.36"/>
<text text-anchor="middle" x="138.97" y="-605.13" font-family="Arial" font-size="14.00">历史值存在判断</text>
</g>
<!-- weight_node -->
<g id="node7" class="node">
<title>weight_node</title>
<path fill="none" stroke="black" d="M266.33,-249.42C266.33,-249.42 233.34,-270.48 233.34,-270.48 228.28,-273.7 217.22,-276.93 211.22,-276.93 211.22,-276.93 128.78,-276.93 128.78,-276.93 122.78,-276.93 111.72,-273.7 106.66,-270.48 106.66,-270.48 73.67,-249.42 73.67,-249.42 68.61,-246.19 68.61,-239.74 73.67,-236.51 73.67,-236.51 106.66,-215.46 106.66,-215.46 111.72,-212.23 122.78,-209 128.78,-209 128.78,-209 211.22,-209 211.22,-209 217.22,-209 228.28,-212.23 233.34,-215.46 233.34,-215.46 266.33,-236.51 266.33,-236.51 271.39,-239.74 271.39,-246.19 266.33,-249.42"/>
<text text-anchor="middle" x="170" y="-247.17" font-family="Arial" font-size="14.00">加权求和 </text>
<text text-anchor="middle" x="170" y="-230.37" font-family="Arial" font-size="14.00"> (权重分配：0.7/0.2)</text>
</g>
<!-- fitness_node&#45;&gt;weight_node -->
<g id="edge8" class="edge">
<title>fitness_node-&gt;weight_node</title>
<path fill="none" stroke="#9e9e9e" stroke-dasharray="1,5" d="M170.74,-652.24C230.5,-645.22 307,-624.28 307,-563.13 307,-563.13 307,-563.13 307,-372.33 307,-331.37 273.98,-299.69 240.36,-278.05"/>
<polygon fill="#9e9e9e" stroke="#9e9e9e" points="242.53,-275.27 232.18,-273 238.85,-281.23 242.53,-275.27"/>
<text text-anchor="middle" x="330.34" y="-463.53" font-family="Arial" font-size="14.00">权重 0.7</text>
</g>
<!-- constraint_node -->
<g id="node5" class="node">
<title>constraint_node</title>
<path fill="none" stroke="black" d="M137.45,-488.53C137.45,-488.53 50.55,-488.53 50.55,-488.53 44.55,-488.53 38.55,-482.53 38.55,-476.53 38.55,-476.53 38.55,-458.93 38.55,-458.93 38.55,-452.93 44.55,-446.93 50.55,-446.93 50.55,-446.93 137.45,-446.93 137.45,-446.93 143.45,-446.93 149.45,-452.93 149.45,-458.93 149.45,-458.93 149.45,-476.53 149.45,-476.53 149.45,-482.53 143.45,-488.53 137.45,-488.53"/>
<text text-anchor="middle" x="94" y="-471.93" font-family="Arial" font-size="14.00">计算约束惩罚 </text>
<text text-anchor="middle" x="94" y="-455.13" font-family="Arial" font-size="14.00"> (横纵比违规统计)</text>
</g>
<!-- mhc_node&#45;&gt;constraint_node -->
<g id="edge3" class="edge">
<title>mhc_node-&gt;constraint_node</title>
<path fill="none" stroke="black" d="M94,-541.08C94,-529.1 94,-513.61 94,-500.04"/>
<polygon fill="black" stroke="black" points="97.5,-500.26 94,-490.26 90.5,-500.26 97.5,-500.26"/>
<text text-anchor="middle" x="129.01" y="-510.73" font-family="Arial" font-size="14.00">统计违规设施</text>
</g>
<!-- mhc_node&#45;&gt;weight_node -->
<g id="edge9" class="edge">
<title>mhc_node-&gt;weight_node</title>
<path fill="none" stroke="#9e9e9e" stroke-dasharray="1,5" d="M144.79,-540.84C153.21,-535.96 161.35,-530.15 168,-523.33 212.47,-477.74 215.87,-456.24 230,-394.13 234.89,-372.64 235.86,-365.78 230,-344.53 224.35,-324.03 213.29,-303.48 202.2,-286.36"/>
<polygon fill="#9e9e9e" stroke="#9e9e9e" points="205.39,-284.83 196.91,-278.48 199.57,-288.73 205.39,-284.83"/>
<text text-anchor="middle" x="249.09" y="-416.33" font-family="Arial" font-size="14.00">权重 0.2</text>
</g>
<!-- diversity_node -->
<g id="node6" class="node">
<title>diversity_node</title>
<path fill="none" stroke="black" d="M121.79,-394.13C121.79,-394.13 44.21,-394.13 44.21,-394.13 38.21,-394.13 32.21,-388.13 32.21,-382.13 32.21,-382.13 32.21,-364.53 32.21,-364.53 32.21,-358.53 38.21,-352.53 44.21,-352.53 44.21,-352.53 121.79,-352.53 121.79,-352.53 127.79,-352.53 133.79,-358.53 133.79,-364.53 133.79,-364.53 133.79,-382.13 133.79,-382.13 133.79,-388.13 127.79,-394.13 121.79,-394.13"/>
<text text-anchor="middle" x="83" y="-377.53" font-family="Arial" font-size="14.00">动作多样性奖励 </text>
<text text-anchor="middle" x="83" y="-360.73" font-family="Arial" font-size="14.00"> (检测动作变化)</text>
</g>
<!-- constraint_node&#45;&gt;diversity_node -->
<g id="edge4" class="edge">
<title>constraint_node-&gt;diversity_node</title>
<path fill="none" stroke="black" d="M89.18,-446.82C87.95,-441.08 86.76,-434.78 85.99,-428.93 85,-421.52 84.34,-413.5 83.9,-405.95"/>
<polygon fill="black" stroke="black" points="87.4,-405.96 83.44,-396.14 80.41,-406.29 87.4,-405.96"/>
<text text-anchor="middle" x="120.99" y="-416.33" font-family="Arial" font-size="14.00">检测动作变化</text>
</g>
<!-- constraint_node&#45;&gt;weight_node -->
<g id="edge10" class="edge">
<title>constraint_node-&gt;weight_node</title>
<path fill="none" stroke="#9e9e9e" stroke-dasharray="1,5" d="M139.2,-446.45C145.81,-441.62 151.79,-435.81 156,-428.93 181.94,-386.56 181.7,-328.09 177.41,-288.3"/>
<polygon fill="#9e9e9e" stroke="#9e9e9e" points="180.92,-288.11 176.23,-278.61 173.97,-288.96 180.92,-288.11"/>
<text text-anchor="middle" x="202.29" y="-369.13" font-family="Arial" font-size="14.00">直接相加</text>
</g>
<!-- diversity_node&#45;&gt;weight_node -->
<g id="edge5" class="edge">
<title>diversity_node-&gt;weight_node</title>
<path fill="none" stroke="black" d="M46.53,-352.25C33.97,-342.59 24.75,-330.38 32.32,-317.73 44.89,-296.74 65.7,-281.39 87.38,-270.3"/>
<polygon fill="black" stroke="black" points="88.84,-273.48 96.35,-266 85.82,-267.17 88.84,-273.48"/>
<text text-anchor="middle" x="55.66" y="-321.93" font-family="Arial" font-size="14.00">传递参数</text>
</g>
<!-- diversity_node&#45;&gt;weight_node -->
<g id="edge11" class="edge">
<title>diversity_node-&gt;weight_node</title>
<path fill="none" stroke="#9e9e9e" stroke-dasharray="1,5" d="M87.63,-352.26C90.62,-341.54 95.17,-328.39 101.52,-317.73 108.24,-306.47 116.9,-295.48 125.79,-285.56"/>
<polygon fill="#9e9e9e" stroke="#9e9e9e" points="128.34,-287.95 132.58,-278.25 123.21,-283.19 128.34,-287.95"/>
<text text-anchor="middle" x="128.76" y="-321.93" font-family="Arial" font-size="14.00">奖励 0.05</text>
</g>
<!-- clip_node -->
<g id="node8" class="node">
<title>clip_node</title>
<path fill="none" stroke="black" d="M311.71,-156.2C311.71,-156.2 91.19,-156.2 91.19,-156.2 85.19,-156.2 75.57,-151.41 71.95,-146.63 71.95,-146.63 23.53,-82.57 23.53,-82.57 19.91,-77.79 22.29,-73 28.29,-73 28.29,-73 248.81,-73 248.81,-73 254.81,-73 264.43,-77.79 268.05,-82.57 268.05,-82.57 316.47,-146.63 316.47,-146.63 320.09,-151.41 317.71,-156.2 311.71,-156.2"/>
<text text-anchor="middle" x="170" y="-118.8" font-family="Arial" font-size="14.00">奖励裁剪 </text>
<text text-anchor="middle" x="170" y="-102" font-family="Arial" font-size="14.00"> (np.clip 到 [-1,1] 范围)</text>
</g>
<!-- weight_node&#45;&gt;clip_node -->
<g id="edge6" class="edge">
<title>weight_node-&gt;clip_node</title>
<path fill="none" stroke="black" d="M170,-208.77C170,-196.2 170,-181.57 170,-167.68"/>
<polygon fill="black" stroke="black" points="173.5,-167.76 170,-157.76 166.5,-167.76 173.5,-167.76"/>
<text text-anchor="middle" x="205.01" y="-178.4" font-family="Arial" font-size="14.00">初步计算结果</text>
</g>
<!-- clip_node&#45;&gt;end -->
<g id="edge7" class="edge">
<title>clip_node-&gt;end</title>
<path fill="none" stroke="black" d="M170,-72.66C170,-64.17 170,-55.4 170,-47.48"/>
<polygon fill="black" stroke="black" points="173.5,-47.75 170,-37.75 166.5,-47.75 173.5,-47.75"/>
</g>
</g>
</svg>